<mxfile host="app.diagrams.net" modified="2021-04-29T03:54:57.412Z" agent="5.0 (Macintosh; Intel Mac OS X 10_15_7) AppleWebKit/537.36 (KHTML, like Gecko) Chrome/90.0.4430.93 Safari/537.36" etag="BlDaFzjU9OkKWc99Ijdk" version="14.6.6" type="github">
  <diagram id="wNDRNWGlTt4SGnnsCUoE" name="第 1 页">
    <mxGraphModel dx="1052" dy="691" grid="1" gridSize="10" guides="1" tooltips="1" connect="1" arrows="1" fold="1" page="1" pageScale="1" pageWidth="827" pageHeight="1169" math="0" shadow="0">
      <root>
        <mxCell id="0" />
        <mxCell id="1" parent="0" />
        <mxCell id="Txw6OeAGNiyMfa0OkUyP-1" value="viewer.loadModelFromURL" style="rounded=1;whiteSpace=wrap;html=1;" vertex="1" parent="1">
          <mxGeometry x="110" y="600" width="220" height="60" as="geometry" />
        </mxCell>
        <mxCell id="Txw6OeAGNiyMfa0OkUyP-2" value="viewer.checkBinary" style="rounded=1;whiteSpace=wrap;html=1;" vertex="1" parent="1">
          <mxGeometry x="110" y="700" width="220" height="50" as="geometry" />
        </mxCell>
        <mxCell id="Txw6OeAGNiyMfa0OkUyP-3" value="loader.loadFromURL" style="rounded=1;whiteSpace=wrap;html=1;" vertex="1" parent="1">
          <mxGeometry x="110" y="780" width="220" height="50" as="geometry" />
        </mxCell>
        <mxCell id="Txw6OeAGNiyMfa0OkUyP-4" value="loader.loadModel" style="rounded=1;whiteSpace=wrap;html=1;" vertex="1" parent="1">
          <mxGeometry x="110" y="860" width="220" height="50" as="geometry" />
        </mxCell>
        <mxCell id="Txw6OeAGNiyMfa0OkUyP-8" value="viewer.parseModel&lt;span style=&quot;color: rgba(0 , 0 , 0 , 0) ; font-family: monospace ; font-size: 0px&quot;&gt;%3CmxGraphModel%3E%3Croot%3E%3CmxCell%20id%3D%220%22%2F%3E%3CmxCell%20id%3D%221%22%20parent%3D%220%22%2F%3E%3CmxCell%20id%3D%222%22%20value%3D%22viewer.loadModel%22%20style%3D%22rounded%3D1%3BwhiteSpace%3Dwrap%3Bhtml%3D1%3B%22%20vertex%3D%221%22%20parent%3D%221%22%3E%3CmxGeometry%20x%3D%22110%22%20y%3D%22860%22%20width%3D%22220%22%20height%3D%2250%22%20as%3D%22geometry%22%2F%3E%3C%2FmxCell%3E%3C%2Froot%3E%3C%2FmxGraphModel%3E&lt;/span&gt;" style="rounded=1;whiteSpace=wrap;html=1;" vertex="1" parent="1">
          <mxGeometry x="110" y="950" width="220" height="50" as="geometry" />
        </mxCell>
        <mxCell id="Txw6OeAGNiyMfa0OkUyP-10" value="viewer.displayModel" style="rounded=1;whiteSpace=wrap;html=1;" vertex="1" parent="1">
          <mxGeometry x="414" y="950" width="220" height="50" as="geometry" />
        </mxCell>
        <mxCell id="Txw6OeAGNiyMfa0OkUyP-11" value="surface-viewer.start()" style="rounded=1;whiteSpace=wrap;html=1;" vertex="1" parent="1">
          <mxGeometry x="90" y="50" width="220" height="70" as="geometry" />
        </mxCell>
      </root>
    </mxGraphModel>
  </diagram>
</mxfile>
